<?xml version="1.0" encoding="UTF-8" standalone="no"?><svg xmlns="http://www.w3.org/2000/svg" xmlns:xlink="http://www.w3.org/1999/xlink" contentScriptType="application/ecmascript" contentStyleType="text/css" height="2508px" preserveAspectRatio="none" style="width:1450px;height:2508px;" version="1.1" viewBox="0 0 1450 2508" width="1450px" zoomAndPan="magnify"><defs><filter height="300%" id="f1j2xdxjcgtynb" width="300%" x="-1" y="-1"><feGaussianBlur result="blurOut" stdDeviation="2.0"/><feColorMatrix in="blurOut" result="blurOut2" type="matrix" values="0 0 0 0 0 0 0 0 0 0 0 0 0 0 0 0 0 0 .4 0"/><feOffset dx="4.0" dy="4.0" in="blurOut2" result="blurOut3"/><feBlend in="SourceGraphic" in2="blurOut3" mode="normal"/></filter></defs><g><rect fill="#DDDDDD" height="2493.2422" style="stroke: #A80036; stroke-width: 1.0;" width="294" x="24" y="4"/><text fill="#000000" font-family="sans-serif" font-size="13" font-weight="bold" lengthAdjust="spacingAndGlyphs" textLength="90" x="126" y="16.0669">Government</text><rect fill="#DDDDDD" height="2493.2422" style="stroke: #A80036; stroke-width: 1.0;" width="380.5" x="728" y="4"/><text fill="#000000" font-family="sans-serif" font-size="13" font-weight="bold" lengthAdjust="spacingAndGlyphs" textLength="170" x="833.25" y="16.0669">Acme Construction Inc.</text><rect fill="#DDDDDD" height="2493.2422" style="stroke: #A80036; stroke-width: 1.0;" width="266.5" x="1150.5" y="4"/><text fill="#000000" font-family="sans-serif" font-size="13" font-weight="bold" lengthAdjust="spacingAndGlyphs" textLength="28" x="1269.75" y="16.0669">City</text><rect fill="#FFFFFF" filter="url(#f1j2xdxjcgtynb)" height="117.5313" style="stroke: #000000; stroke-width: 2.0;" width="646" x="468.5" y="2065.9141"/><line style="stroke: #A80036; stroke-width: 1.0; stroke-dasharray: 5.0,5.0;" x1="121" x2="121" y1="106.4297" y2="2410.9453"/><line style="stroke: #A80036; stroke-width: 1.0; stroke-dasharray: 5.0,5.0;" x1="269" x2="269" y1="106.4297" y2="2410.9453"/><line style="stroke: #A80036; stroke-width: 1.0; stroke-dasharray: 5.0,5.0;" x1="559.5" x2="559.5" y1="106.4297" y2="2410.9453"/><line style="stroke: #A80036; stroke-width: 1.0; stroke-dasharray: 5.0,5.0;" x1="793" x2="793" y1="106.4297" y2="2410.9453"/><line style="stroke: #A80036; stroke-width: 1.0; stroke-dasharray: 5.0,5.0;" x1="1067.5" x2="1067.5" y1="106.4297" y2="2410.9453"/><line style="stroke: #A80036; stroke-width: 1.0; stroke-dasharray: 5.0,5.0;" x1="1228.5" x2="1228.5" y1="106.4297" y2="2410.9453"/><line style="stroke: #A80036; stroke-width: 1.0; stroke-dasharray: 5.0,5.0;" x1="1377" x2="1377" y1="106.4297" y2="2410.9453"/><rect fill="#FEFECE" filter="url(#f1j2xdxjcgtynb)" height="30.2969" style="stroke: #A80036; stroke-width: 1.5;" width="143" x="48" y="71.1328"/><text fill="#000000" font-family="sans-serif" font-size="14" lengthAdjust="spacingAndGlyphs" textLength="129" x="55" y="91.1279">Corporate Registry</text><rect fill="#FEFECE" filter="url(#f1j2xdxjcgtynb)" height="30.2969" style="stroke: #A80036; stroke-width: 1.5;" width="143" x="48" y="2409.9453"/><text fill="#000000" font-family="sans-serif" font-size="14" lengthAdjust="spacingAndGlyphs" textLength="129" x="55" y="2429.9404">Corporate Registry</text><rect fill="#FEFECE" filter="url(#f1j2xdxjcgtynb)" height="30.2969" style="stroke: #A80036; stroke-width: 1.5;" width="45" x="245" y="71.1328"/><text fill="#000000" font-family="sans-serif" font-size="14" lengthAdjust="spacingAndGlyphs" textLength="31" x="252" y="91.1279">WSA</text><rect fill="#FEFECE" filter="url(#f1j2xdxjcgtynb)" height="30.2969" style="stroke: #A80036; stroke-width: 1.5;" width="45" x="245" y="2409.9453"/><text fill="#000000" font-family="sans-serif" font-size="14" lengthAdjust="spacingAndGlyphs" textLength="31" x="252" y="2429.9404">WSA</text><rect fill="#FEFECE" filter="url(#f1j2xdxjcgtynb)" height="30.2969" style="stroke: #A80036; stroke-width: 1.5;" width="118" x="498.5" y="71.1328"/><text fill="#000000" font-family="sans-serif" font-size="14" lengthAdjust="spacingAndGlyphs" textLength="104" x="505.5" y="91.1279">Building Owner</text><rect fill="#FEFECE" filter="url(#f1j2xdxjcgtynb)" height="30.2969" style="stroke: #A80036; stroke-width: 1.5;" width="118" x="498.5" y="2409.9453"/><text fill="#000000" font-family="sans-serif" font-size="14" lengthAdjust="spacingAndGlyphs" textLength="104" x="505.5" y="2429.9404">Building Owner</text><rect fill="#FEFECE" filter="url(#f1j2xdxjcgtynb)" height="30.2969" style="stroke: #A80036; stroke-width: 1.5;" width="79" x="752" y="71.1328"/><text fill="#000000" font-family="sans-serif" font-size="14" lengthAdjust="spacingAndGlyphs" textLength="65" x="759" y="91.1279">Company</text><rect fill="#FEFECE" filter="url(#f1j2xdxjcgtynb)" height="30.2969" style="stroke: #A80036; stroke-width: 1.5;" width="79" x="752" y="2409.9453"/><text fill="#000000" font-family="sans-serif" font-size="14" lengthAdjust="spacingAndGlyphs" textLength="65" x="759" y="2429.9404">Company</text><text fill="#000000" font-family="sans-serif" font-size="14" lengthAdjust="spacingAndGlyphs" textLength="68" x="1030.5" y="103.1279">Employee</text><ellipse cx="1067.5" cy="33.1328" fill="#FEFECE" filter="url(#f1j2xdxjcgtynb)" rx="8" ry="8" style="stroke: #A80036; stroke-width: 2.0;"/><path d="M1067.5,41.1328 L1067.5,68.1328 M1054.5,49.1328 L1080.5,49.1328 M1067.5,68.1328 L1054.5,83.1328 M1067.5,68.1328 L1080.5,83.1328 " fill="#FEFECE" filter="url(#f1j2xdxjcgtynb)" style="stroke: #A80036; stroke-width: 2.0;"/><text fill="#000000" font-family="sans-serif" font-size="14" lengthAdjust="spacingAndGlyphs" textLength="68" x="1030.5" y="2422.9404">Employee</text><ellipse cx="1067.5" cy="2436.2422" fill="#FEFECE" filter="url(#f1j2xdxjcgtynb)" rx="8" ry="8" style="stroke: #A80036; stroke-width: 2.0;"/><path d="M1067.5,2444.2422 L1067.5,2471.2422 M1054.5,2452.2422 L1080.5,2452.2422 M1067.5,2471.2422 L1054.5,2486.2422 M1067.5,2471.2422 L1080.5,2486.2422 " fill="#FEFECE" filter="url(#f1j2xdxjcgtynb)" style="stroke: #A80036; stroke-width: 2.0;"/><rect fill="#FEFECE" filter="url(#f1j2xdxjcgtynb)" height="30.2969" style="stroke: #A80036; stroke-width: 1.5;" width="104" x="1174.5" y="71.1328"/><text fill="#000000" font-family="sans-serif" font-size="14" lengthAdjust="spacingAndGlyphs" textLength="90" x="1181.5" y="91.1279">Permits Dept</text><rect fill="#FEFECE" filter="url(#f1j2xdxjcgtynb)" height="30.2969" style="stroke: #A80036; stroke-width: 1.5;" width="104" x="1174.5" y="2409.9453"/><text fill="#000000" font-family="sans-serif" font-size="14" lengthAdjust="spacingAndGlyphs" textLength="90" x="1181.5" y="2429.9404">Permits Dept</text><text fill="#000000" font-family="sans-serif" font-size="14" lengthAdjust="spacingAndGlyphs" textLength="65" x="1342" y="103.1279">Inspector</text><ellipse cx="1377.5" cy="33.1328" fill="#FEFECE" filter="url(#f1j2xdxjcgtynb)" rx="8" ry="8" style="stroke: #A80036; stroke-width: 2.0;"/><path d="M1377.5,41.1328 L1377.5,68.1328 M1364.5,49.1328 L1390.5,49.1328 M1377.5,68.1328 L1364.5,83.1328 M1377.5,68.1328 L1390.5,83.1328 " fill="#FEFECE" filter="url(#f1j2xdxjcgtynb)" style="stroke: #A80036; stroke-width: 2.0;"/><text fill="#000000" font-family="sans-serif" font-size="14" lengthAdjust="spacingAndGlyphs" textLength="65" x="1342" y="2422.9404">Inspector</text><ellipse cx="1377.5" cy="2436.2422" fill="#FEFECE" filter="url(#f1j2xdxjcgtynb)" rx="8" ry="8" style="stroke: #A80036; stroke-width: 2.0;"/><path d="M1377.5,2444.2422 L1377.5,2471.2422 M1364.5,2452.2422 L1390.5,2452.2422 M1377.5,2471.2422 L1364.5,2486.2422 M1377.5,2471.2422 L1390.5,2486.2422 " fill="#FEFECE" filter="url(#f1j2xdxjcgtynb)" style="stroke: #A80036; stroke-width: 2.0;"/><rect fill="#EEEEEE" filter="url(#f1j2xdxjcgtynb)" height="3" style="stroke: #EEEEEE; stroke-width: 1.0;" width="1435" x="3" y="139.3242"/><line style="stroke: #000000; stroke-width: 1.0;" x1="3" x2="1438" y1="139.3242" y2="139.3242"/><line style="stroke: #000000; stroke-width: 1.0;" x1="3" x2="1438" y1="142.3242" y2="142.3242"/><rect fill="#EEEEEE" filter="url(#f1j2xdxjcgtynb)" height="27.7891" style="stroke: #000000; stroke-width: 2.0;" width="483" x="479" y="126.4297"/><text fill="#000000" font-family="sans-serif" font-size="17" font-weight="bold" lengthAdjust="spacingAndGlyphs" textLength="469" x="485" y="146.2095">Story 1 - Acme Registers with Corporate Registry</text><polygon fill="#A80036" points="132.5,181.2188,122.5,185.2188,132.5,189.2188,128.5,185.2188" style="stroke: #A80036; stroke-width: 1.0;"/><line style="stroke: #A80036; stroke-width: 1.0;" x1="126.5" x2="792.5" y1="185.2188" y2="185.2188"/><text fill="#000000" font-family="sans-serif" font-size="13" lengthAdjust="spacingAndGlyphs" textLength="200" x="138.5" y="180.2856">Request Corporate Registration</text><line style="stroke: #A80036; stroke-width: 1.0;" x1="121.5" x2="163.5" y1="214.4844" y2="214.4844"/><line style="stroke: #A80036; stroke-width: 1.0;" x1="163.5" x2="163.5" y1="214.4844" y2="227.4844"/><line style="stroke: #A80036; stroke-width: 1.0;" x1="122.5" x2="163.5" y1="227.4844" y2="227.4844"/><polygon fill="#A80036" points="132.5,223.4844,122.5,227.4844,132.5,231.4844,128.5,227.4844" style="stroke: #A80036; stroke-width: 1.0;"/><text fill="#000000" font-family="sans-serif" font-size="13" lengthAdjust="spacingAndGlyphs" textLength="48" x="128.5" y="209.4185">internal</text><polygon fill="#A80036" points="781.5,252.4844,791.5,256.4844,781.5,260.4844,785.5,256.4844" style="stroke: #A80036; stroke-width: 1.0;"/><line style="stroke: #A80036; stroke-width: 1.0;" x1="121.5" x2="787.5" y1="256.4844" y2="256.4844"/><text fill="#000000" font-family="sans-serif" font-size="13" lengthAdjust="spacingAndGlyphs" textLength="181" x="128.5" y="251.5513">Send Corporate Registration</text><line style="stroke: #A80036; stroke-width: 1.0;" x1="793.5" x2="835.5" y1="285.75" y2="285.75"/><line style="stroke: #A80036; stroke-width: 1.0;" x1="835.5" x2="835.5" y1="285.75" y2="298.75"/><line style="stroke: #A80036; stroke-width: 1.0;" x1="794.5" x2="835.5" y1="298.75" y2="298.75"/><polygon fill="#A80036" points="804.5,294.75,794.5,298.75,804.5,302.75,800.5,298.75" style="stroke: #A80036; stroke-width: 1.0;"/><text fill="#000000" font-family="sans-serif" font-size="13" lengthAdjust="spacingAndGlyphs" textLength="149" x="800.5" y="280.6841">Store Corp Registration</text><rect fill="#EEEEEE" filter="url(#f1j2xdxjcgtynb)" height="3" style="stroke: #EEEEEE; stroke-width: 1.0;" width="1435" x="3" y="329.6445"/><line style="stroke: #000000; stroke-width: 1.0;" x1="3" x2="1438" y1="329.6445" y2="329.6445"/><line style="stroke: #000000; stroke-width: 1.0;" x1="3" x2="1438" y1="332.6445" y2="332.6445"/><rect fill="#EEEEEE" filter="url(#f1j2xdxjcgtynb)" height="27.7891" style="stroke: #000000; stroke-width: 2.0;" width="444" x="498.5" y="316.75"/><text fill="#000000" font-family="sans-serif" font-size="17" font-weight="bold" lengthAdjust="spacingAndGlyphs" textLength="430" x="504.5" y="336.5298">Story 2 - Acme Obtains WSA Clearance Letter</text><line style="stroke: #A80036; stroke-width: 1.0;" x1="793.5" x2="835.5" y1="375.6719" y2="375.6719"/><line style="stroke: #A80036; stroke-width: 1.0;" x1="835.5" x2="835.5" y1="375.6719" y2="388.6719"/><line style="stroke: #A80036; stroke-width: 1.0;" x1="794.5" x2="835.5" y1="388.6719" y2="388.6719"/><polygon fill="#A80036" points="804.5,384.6719,794.5,388.6719,804.5,392.6719,800.5,388.6719" style="stroke: #A80036; stroke-width: 1.0;"/><text fill="#000000" font-family="sans-serif" font-size="13" lengthAdjust="spacingAndGlyphs" textLength="163" x="800.5" y="370.606">Assemble CL applications</text><polygon fill="#A80036" points="280.5,413.6719,270.5,417.6719,280.5,421.6719,276.5,417.6719" style="stroke: #A80036; stroke-width: 1.0;"/><line style="stroke: #A80036; stroke-width: 1.0;" x1="274.5" x2="792.5" y1="417.6719" y2="417.6719"/><text fill="#000000" font-family="sans-serif" font-size="13" lengthAdjust="spacingAndGlyphs" textLength="183" x="286.5" y="412.7388">Send CL Application Request</text><line style="stroke: #A80036; stroke-width: 1.0;" x1="269.5" x2="311.5" y1="446.9375" y2="446.9375"/><line style="stroke: #A80036; stroke-width: 1.0;" x1="311.5" x2="311.5" y1="446.9375" y2="459.9375"/><line style="stroke: #A80036; stroke-width: 1.0;" x1="270.5" x2="311.5" y1="459.9375" y2="459.9375"/><polygon fill="#A80036" points="280.5,455.9375,270.5,459.9375,280.5,463.9375,276.5,459.9375" style="stroke: #A80036; stroke-width: 1.0;"/><text fill="#000000" font-family="sans-serif" font-size="13" lengthAdjust="spacingAndGlyphs" textLength="276" x="276.5" y="441.8716">Confirm application detail and assemble CL</text><polygon fill="#A80036" points="781.5,484.9375,791.5,488.9375,781.5,492.9375,785.5,488.9375" style="stroke: #A80036; stroke-width: 1.0;"/><line style="stroke: #A80036; stroke-width: 1.0;" x1="269.5" x2="787.5" y1="488.9375" y2="488.9375"/><text fill="#000000" font-family="sans-serif" font-size="13" lengthAdjust="spacingAndGlyphs" textLength="192" x="276.5" y="484.0044">Send Clearance Letter &lt;vCL&gt;</text><line style="stroke: #A80036; stroke-width: 1.0;" x1="793.5" x2="835.5" y1="518.2031" y2="518.2031"/><line style="stroke: #A80036; stroke-width: 1.0;" x1="835.5" x2="835.5" y1="518.2031" y2="531.2031"/><line style="stroke: #A80036; stroke-width: 1.0;" x1="794.5" x2="835.5" y1="531.2031" y2="531.2031"/><polygon fill="#A80036" points="804.5,527.2031,794.5,531.2031,804.5,535.2031,800.5,531.2031" style="stroke: #A80036; stroke-width: 1.0;"/><text fill="#000000" font-family="sans-serif" font-size="13" lengthAdjust="spacingAndGlyphs" textLength="145" x="800.5" y="513.1372">Store Clearance Letter</text><polygon fill="#A80036" points="280.5,556.2031,270.5,560.2031,280.5,564.2031,276.5,560.2031" style="stroke: #A80036; stroke-width: 1.0;"/><line style="stroke: #A80036; stroke-width: 1.0;" x1="274.5" x2="792.5" y1="560.2031" y2="560.2031"/><text fill="#000000" font-family="sans-serif" font-size="13" lengthAdjust="spacingAndGlyphs" textLength="208" x="286.5" y="555.27">Subscribe to Revocation for CLID</text><polygon fill="#A80036" points="781.5,585.3359,791.5,589.3359,781.5,593.3359,785.5,589.3359" style="stroke: #A80036; stroke-width: 1.0;"/><line style="stroke: #A80036; stroke-width: 1.0;" x1="269.5" x2="787.5" y1="589.3359" y2="589.3359"/><text fill="#000000" font-family="sans-serif" font-size="13" lengthAdjust="spacingAndGlyphs" textLength="131" x="276.5" y="584.4028">Confirm subscription</text><rect fill="#EEEEEE" filter="url(#f1j2xdxjcgtynb)" height="3" style="stroke: #EEEEEE; stroke-width: 1.0;" width="1435" x="3" y="620.3633"/><line style="stroke: #000000; stroke-width: 1.0;" x1="3" x2="1438" y1="620.3633" y2="620.3633"/><line style="stroke: #000000; stroke-width: 1.0;" x1="3" x2="1438" y1="623.3633" y2="623.3633"/><rect fill="#EEEEEE" filter="url(#f1j2xdxjcgtynb)" height="27.7891" style="stroke: #000000; stroke-width: 2.0;" width="334" x="553.5" y="607.4688"/><text fill="#000000" font-family="sans-serif" font-size="17" font-weight="bold" lengthAdjust="spacingAndGlyphs" textLength="320" x="559.5" y="627.2485">Story 3 - # Home Addition Project</text><polygon fill="#FBFB77" filter="url(#f1j2xdxjcgtynb)" points="484,650.2578,484,765.2578,1303,765.2578,1303,660.2578,1293,650.2578,484,650.2578" style="stroke: #A80036; stroke-width: 1.0;"/><line style="stroke: #A80036; stroke-width: 1.0;" x1="1293" x2="1293" y1="650.2578" y2="660.2578"/><line style="stroke: #A80036; stroke-width: 1.0;" x1="1303" x2="1293" y1="660.2578" y2="660.2578"/><text fill="#000000" font-family="sans-serif" font-size="13" lengthAdjust="spacingAndGlyphs" textLength="459" x="638.5" y="667.3247">A Homeowner has decided to add an extension to her residential home.</text><text fill="#000000" font-family="sans-serif" font-size="13" lengthAdjust="spacingAndGlyphs" textLength="419" x="638.5" y="682.4575">After completing her financial and architectural dependencies she</text><text fill="#000000" font-family="sans-serif" font-size="13" lengthAdjust="spacingAndGlyphs" textLength="459" x="638.5" y="697.5903">obtains a Residential Building Permit from the City Building Department.</text><text fill="#000000" font-family="sans-serif" font-size="13" lengthAdjust="spacingAndGlyphs" textLength="473" x="638.5" y="712.7231">She has also contracted with Acme Construction Company for the project.</text><text fill="#000000" font-family="sans-serif" font-size="13" lengthAdjust="spacingAndGlyphs" textLength="497" x="638.5" y="727.856">When the work commences she needs to verifies Acme employees that arrive</text><text fill="#000000" font-family="sans-serif" font-size="13" lengthAdjust="spacingAndGlyphs" textLength="463" x="638.5" y="742.9888">onsite each day for Acme credentials which include proof of employment</text><text fill="#000000" font-family="sans-serif" font-size="13" lengthAdjust="spacingAndGlyphs" textLength="253" x="638.5" y="758.1216">as well as Acme's WSA clearance letter.</text><line style="stroke: #A80036; stroke-width: 1.0;" x1="559.5" x2="601.5" y1="796.3203" y2="796.3203"/><line style="stroke: #A80036; stroke-width: 1.0;" x1="601.5" x2="601.5" y1="796.3203" y2="809.3203"/><line style="stroke: #A80036; stroke-width: 1.0;" x1="560.5" x2="601.5" y1="809.3203" y2="809.3203"/><polygon fill="#A80036" points="570.5,805.3203,560.5,809.3203,570.5,813.3203,566.5,809.3203" style="stroke: #A80036; stroke-width: 1.0;"/><text fill="#000000" font-family="sans-serif" font-size="13" lengthAdjust="spacingAndGlyphs" textLength="220" x="566.5" y="791.2544">Assemble building permit package</text><polygon fill="#A80036" points="1216.5,834.3203,1226.5,838.3203,1216.5,842.3203,1220.5,838.3203" style="stroke: #A80036; stroke-width: 1.0;"/><line style="stroke: #A80036; stroke-width: 1.0;" x1="559.5" x2="1222.5" y1="838.3203" y2="838.3203"/><text fill="#000000" font-family="sans-serif" font-size="13" lengthAdjust="spacingAndGlyphs" textLength="152" x="566.5" y="833.3872">Request Building Permit</text><line style="stroke: #A80036; stroke-width: 1.0;" x1="1228.5" x2="1270.5" y1="867.5859" y2="867.5859"/><line style="stroke: #A80036; stroke-width: 1.0;" x1="1270.5" x2="1270.5" y1="867.5859" y2="880.5859"/><line style="stroke: #A80036; stroke-width: 1.0;" x1="1229.5" x2="1270.5" y1="880.5859" y2="880.5859"/><polygon fill="#A80036" points="1239.5,876.5859,1229.5,880.5859,1239.5,884.5859,1235.5,880.5859" style="stroke: #A80036; stroke-width: 1.0;"/><text fill="#000000" font-family="sans-serif" font-size="13" lengthAdjust="spacingAndGlyphs" textLength="135" x="1235.5" y="862.52">Analyze and Approve</text><polygon fill="#A80036" points="570.5,905.5859,560.5,909.5859,570.5,913.5859,566.5,909.5859" style="stroke: #A80036; stroke-width: 1.0;"/><line style="stroke: #A80036; stroke-width: 1.0;" x1="564.5" x2="1227.5" y1="909.5859" y2="909.5859"/><text fill="#000000" font-family="sans-serif" font-size="13" lengthAdjust="spacingAndGlyphs" textLength="208" x="576.5" y="904.6528">Send Building Permit &lt;vPermit&gt;</text><line style="stroke: #A80036; stroke-width: 1.0;" x1="559.5" x2="601.5" y1="938.8516" y2="938.8516"/><line style="stroke: #A80036; stroke-width: 1.0;" x1="601.5" x2="601.5" y1="938.8516" y2="951.8516"/><line style="stroke: #A80036; stroke-width: 1.0;" x1="560.5" x2="601.5" y1="951.8516" y2="951.8516"/><polygon fill="#A80036" points="570.5,947.8516,560.5,951.8516,570.5,955.8516,566.5,951.8516" style="stroke: #A80036; stroke-width: 1.0;"/><text fill="#000000" font-family="sans-serif" font-size="13" lengthAdjust="spacingAndGlyphs" textLength="88" x="566.5" y="933.7856">Store vPermit</text><rect fill="#EEEEEE" filter="url(#f1j2xdxjcgtynb)" height="3" style="stroke: #EEEEEE; stroke-width: 1.0;" width="1435" x="3" y="982.7461"/><line style="stroke: #000000; stroke-width: 1.0;" x1="3" x2="1438" y1="982.7461" y2="982.7461"/><line style="stroke: #000000; stroke-width: 1.0;" x1="3" x2="1438" y1="985.7461" y2="985.7461"/><rect fill="#EEEEEE" filter="url(#f1j2xdxjcgtynb)" height="27.7891" style="stroke: #000000; stroke-width: 2.0;" width="660" x="390.5" y="969.8516"/><text fill="#000000" font-family="sans-serif" font-size="17" font-weight="bold" lengthAdjust="spacingAndGlyphs" textLength="646" x="396.5" y="989.6313">Story 4 - Acme Provides Clearance Letter For Authorized Employees</text><polygon fill="#A80036" points="1055.5,1024.6406,1065.5,1028.6406,1055.5,1032.6406,1059.5,1028.6406" style="stroke: #A80036; stroke-width: 1.0;"/><line style="stroke: #A80036; stroke-width: 1.0;" x1="793.5" x2="1061.5" y1="1028.6406" y2="1028.6406"/><text fill="#000000" font-family="sans-serif" font-size="13" lengthAdjust="spacingAndGlyphs" textLength="242" x="800.5" y="1023.7075">Send copy of Clearance Letter &lt;vCL&gt;</text><line style="stroke: #A80036; stroke-width: 1.0;" x1="1067.5" x2="1109.5" y1="1057.9063" y2="1057.9063"/><line style="stroke: #A80036; stroke-width: 1.0;" x1="1109.5" x2="1109.5" y1="1057.9063" y2="1070.9063"/><line style="stroke: #A80036; stroke-width: 1.0;" x1="1068.5" x2="1109.5" y1="1070.9063" y2="1070.9063"/><polygon fill="#A80036" points="1078.5,1066.9063,1068.5,1070.9063,1078.5,1074.9063,1074.5,1070.9063" style="stroke: #A80036; stroke-width: 1.0;"/><text fill="#000000" font-family="sans-serif" font-size="13" lengthAdjust="spacingAndGlyphs" textLength="62" x="1074.5" y="1052.8403">Store vCL</text><rect fill="#EEEEEE" filter="url(#f1j2xdxjcgtynb)" height="3" style="stroke: #EEEEEE; stroke-width: 1.0;" width="1435" x="3" y="1101.8008"/><line style="stroke: #000000; stroke-width: 1.0;" x1="3" x2="1438" y1="1101.8008" y2="1101.8008"/><line style="stroke: #000000; stroke-width: 1.0;" x1="3" x2="1438" y1="1104.8008" y2="1104.8008"/><rect fill="#EEEEEE" filter="url(#f1j2xdxjcgtynb)" height="27.7891" style="stroke: #000000; stroke-width: 2.0;" width="467" x="487" y="1088.9063"/><text fill="#000000" font-family="sans-serif" font-size="17" font-weight="bold" lengthAdjust="spacingAndGlyphs" textLength="453" x="493" y="1108.686">Story 6 - Commercial Building Permit Acquisition</text><polygon fill="#FBFB77" filter="url(#f1j2xdxjcgtynb)" points="484,1131.6953,484,1216.6953,1303,1216.6953,1303,1141.6953,1293,1131.6953,484,1131.6953" style="stroke: #A80036; stroke-width: 1.0;"/><line style="stroke: #A80036; stroke-width: 1.0;" x1="1293" x2="1293" y1="1131.6953" y2="1141.6953"/><line style="stroke: #A80036; stroke-width: 1.0;" x1="1303" x2="1293" y1="1141.6953" y2="1141.6953"/><text fill="#000000" font-family="sans-serif" font-size="13" lengthAdjust="spacingAndGlyphs" textLength="524" x="625" y="1148.7622">The entity owning a new shopping plaza has registered with the corporate registry.</text><text fill="#000000" font-family="sans-serif" font-size="13" lengthAdjust="spacingAndGlyphs" textLength="502" x="625" y="1163.895">The owner of a new shopping plaza has just received financial and architectural</text><text fill="#000000" font-family="sans-serif" font-size="13" lengthAdjust="spacingAndGlyphs" textLength="459" x="625" y="1179.0278">approvals for proceeding with the project. He obtains a new Commercial</text><text fill="#000000" font-family="sans-serif" font-size="13" lengthAdjust="spacingAndGlyphs" textLength="323" x="625" y="1194.1606">Building Permit from the City Building Department.</text><text fill="#000000" font-family="sans-serif" font-size="13" lengthAdjust="spacingAndGlyphs" textLength="0" x="629" y="1209.2935"/><line style="stroke: #A80036; stroke-width: 1.0;" x1="559.5" x2="601.5" y1="1247.4922" y2="1247.4922"/><line style="stroke: #A80036; stroke-width: 1.0;" x1="601.5" x2="601.5" y1="1247.4922" y2="1260.4922"/><line style="stroke: #A80036; stroke-width: 1.0;" x1="560.5" x2="601.5" y1="1260.4922" y2="1260.4922"/><polygon fill="#A80036" points="570.5,1256.4922,560.5,1260.4922,570.5,1264.4922,566.5,1260.4922" style="stroke: #A80036; stroke-width: 1.0;"/><text fill="#000000" font-family="sans-serif" font-size="13" lengthAdjust="spacingAndGlyphs" textLength="220" x="566.5" y="1242.4263">Assemble building permit package</text><polygon fill="#A80036" points="1216.5,1285.4922,1226.5,1289.4922,1216.5,1293.4922,1220.5,1289.4922" style="stroke: #A80036; stroke-width: 1.0;"/><line style="stroke: #A80036; stroke-width: 1.0;" x1="559.5" x2="1222.5" y1="1289.4922" y2="1289.4922"/><text fill="#000000" font-family="sans-serif" font-size="13" lengthAdjust="spacingAndGlyphs" textLength="152" x="566.5" y="1284.5591">Request Building Permit</text><line style="stroke: #A80036; stroke-width: 1.0;" x1="1228.5" x2="1270.5" y1="1318.7578" y2="1318.7578"/><line style="stroke: #A80036; stroke-width: 1.0;" x1="1270.5" x2="1270.5" y1="1318.7578" y2="1331.7578"/><line style="stroke: #A80036; stroke-width: 1.0;" x1="1229.5" x2="1270.5" y1="1331.7578" y2="1331.7578"/><polygon fill="#A80036" points="1239.5,1327.7578,1229.5,1331.7578,1239.5,1335.7578,1235.5,1331.7578" style="stroke: #A80036; stroke-width: 1.0;"/><text fill="#000000" font-family="sans-serif" font-size="13" lengthAdjust="spacingAndGlyphs" textLength="135" x="1235.5" y="1313.6919">Analyze and Approve</text><polygon fill="#A80036" points="570.5,1356.7578,560.5,1360.7578,570.5,1364.7578,566.5,1360.7578" style="stroke: #A80036; stroke-width: 1.0;"/><line style="stroke: #A80036; stroke-width: 1.0;" x1="564.5" x2="1227.5" y1="1360.7578" y2="1360.7578"/><text fill="#000000" font-family="sans-serif" font-size="13" lengthAdjust="spacingAndGlyphs" textLength="208" x="576.5" y="1355.8247">Send Building Permit &lt;vPermit&gt;</text><line style="stroke: #A80036; stroke-width: 1.0;" x1="559.5" x2="601.5" y1="1390.0234" y2="1390.0234"/><line style="stroke: #A80036; stroke-width: 1.0;" x1="601.5" x2="601.5" y1="1390.0234" y2="1403.0234"/><line style="stroke: #A80036; stroke-width: 1.0;" x1="560.5" x2="601.5" y1="1403.0234" y2="1403.0234"/><polygon fill="#A80036" points="570.5,1399.0234,560.5,1403.0234,570.5,1407.0234,566.5,1403.0234" style="stroke: #A80036; stroke-width: 1.0;"/><text fill="#000000" font-family="sans-serif" font-size="13" lengthAdjust="spacingAndGlyphs" textLength="88" x="566.5" y="1384.9575">Store vPermit</text><rect fill="#EEEEEE" filter="url(#f1j2xdxjcgtynb)" height="3" style="stroke: #EEEEEE; stroke-width: 1.0;" width="1435" x="3" y="1433.918"/><line style="stroke: #000000; stroke-width: 1.0;" x1="3" x2="1438" y1="1433.918" y2="1433.918"/><line style="stroke: #000000; stroke-width: 1.0;" x1="3" x2="1438" y1="1436.918" y2="1436.918"/><rect fill="#EEEEEE" filter="url(#f1j2xdxjcgtynb)" height="27.7891" style="stroke: #000000; stroke-width: 2.0;" width="471" x="485" y="1421.0234"/><text fill="#000000" font-family="sans-serif" font-size="17" font-weight="bold" lengthAdjust="spacingAndGlyphs" textLength="457" x="491" y="1440.8032">Story 5 - City Inspector Performs Site Inspection</text><polygon fill="#FBFB77" filter="url(#f1j2xdxjcgtynb)" points="484,1463.8125,484,1594.8125,1303,1594.8125,1303,1473.8125,1293,1463.8125,484,1463.8125" style="stroke: #A80036; stroke-width: 1.0;"/><line style="stroke: #A80036; stroke-width: 1.0;" x1="1293" x2="1293" y1="1463.8125" y2="1473.8125"/><line style="stroke: #A80036; stroke-width: 1.0;" x1="1303" x2="1293" y1="1473.8125" y2="1473.8125"/><text fill="#000000" font-family="sans-serif" font-size="13" lengthAdjust="spacingAndGlyphs" textLength="470" x="626" y="1480.8794">City Inspector arrives at home owner's job site to perform inspection. First</text><text fill="#000000" font-family="sans-serif" font-size="13" lengthAdjust="spacingAndGlyphs" textLength="449" x="626" y="1496.0122">step is to validate that the required building permit is in place and that</text><text fill="#000000" font-family="sans-serif" font-size="13" lengthAdjust="spacingAndGlyphs" textLength="522" x="626" y="1511.145">the contractors on site are covered by Workplace Safety Agency (WSA) insurance.</text><text fill="#000000" font-family="sans-serif" font-size="13" lengthAdjust="spacingAndGlyphs" textLength="0" x="630" y="1526.2778"/><text fill="#000000" font-family="sans-serif" font-size="13" lengthAdjust="spacingAndGlyphs" textLength="482" x="626" y="1541.4106">City Inspector requests building permit from home owner, receiving a digital</text><text fill="#000000" font-family="sans-serif" font-size="13" lengthAdjust="spacingAndGlyphs" textLength="480" x="626" y="1556.5435">copy of the building permit. Inspector requests Contractor's WSA Clearance</text><text fill="#000000" font-family="sans-serif" font-size="13" lengthAdjust="spacingAndGlyphs" textLength="492" x="626" y="1571.6763">Letter from Home Owner for Acme and that each job site employee works for</text><text fill="#000000" font-family="sans-serif" font-size="13" lengthAdjust="spacingAndGlyphs" textLength="491" x="626" y="1586.8091">Acme. Permit, Clearance Letter, and Employee Badges are proved (as valid).</text><polygon fill="#A80036" points="570.5,1620.875,560.5,1624.875,570.5,1628.875,566.5,1624.875" style="stroke: #A80036; stroke-width: 1.0;"/><line style="stroke: #A80036; stroke-width: 1.0;" x1="564.5" x2="1376.5" y1="1624.875" y2="1624.875"/><text fill="#000000" font-family="sans-serif" font-size="13" lengthAdjust="spacingAndGlyphs" textLength="194" x="576.5" y="1619.9419">Requests information package</text><polygon fill="#A80036" points="1365.5,1650.0078,1375.5,1654.0078,1365.5,1658.0078,1369.5,1654.0078" style="stroke: #A80036; stroke-width: 1.0;"/><line style="stroke: #A80036; stroke-width: 1.0;" x1="559.5" x2="1371.5" y1="1654.0078" y2="1654.0078"/><text fill="#000000" font-family="sans-serif" font-size="13" lengthAdjust="spacingAndGlyphs" textLength="214" x="566.5" y="1649.0747">provides copy of Clearance Letter</text><polygon fill="#A80036" points="1365.5,1679.1406,1375.5,1683.1406,1365.5,1687.1406,1369.5,1683.1406" style="stroke: #A80036; stroke-width: 1.0;"/><line style="stroke: #A80036; stroke-width: 1.0;" x1="559.5" x2="1371.5" y1="1683.1406" y2="1683.1406"/><text fill="#000000" font-family="sans-serif" font-size="13" lengthAdjust="spacingAndGlyphs" textLength="204" x="566.5" y="1678.2075">provides copy of Building Permit</text><rect fill="#EEEEEE" filter="url(#f1j2xdxjcgtynb)" height="3" style="stroke: #EEEEEE; stroke-width: 1.0;" width="1435" x="3" y="1714.168"/><line style="stroke: #000000; stroke-width: 1.0;" x1="3" x2="1438" y1="1714.168" y2="1714.168"/><line style="stroke: #000000; stroke-width: 1.0;" x1="3" x2="1438" y1="1717.168" y2="1717.168"/><rect fill="#EEEEEE" filter="url(#f1j2xdxjcgtynb)" height="27.7891" style="stroke: #000000; stroke-width: 2.0;" width="628" x="406.5" y="1701.2734"/><text fill="#000000" font-family="sans-serif" font-size="17" font-weight="bold" lengthAdjust="spacingAndGlyphs" textLength="614" x="412.5" y="1721.0532">Story 7 Acme Assigns An Employee to the Home Addition Project</text><line style="stroke: #A80036; stroke-width: 1.0;" x1="793.5" x2="835.5" y1="1760.1953" y2="1760.1953"/><line style="stroke: #A80036; stroke-width: 1.0;" x1="835.5" x2="835.5" y1="1760.1953" y2="1773.1953"/><line style="stroke: #A80036; stroke-width: 1.0;" x1="794.5" x2="835.5" y1="1773.1953" y2="1773.1953"/><polygon fill="#A80036" points="804.5,1769.1953,794.5,1773.1953,804.5,1777.1953,800.5,1773.1953" style="stroke: #A80036; stroke-width: 1.0;"/><text fill="#000000" font-family="sans-serif" font-size="13" lengthAdjust="spacingAndGlyphs" textLength="260" x="800.5" y="1755.1294">Assemble Employee Badge info package</text><polygon fill="#A80036" points="1055.5,1798.1953,1065.5,1802.1953,1055.5,1806.1953,1059.5,1802.1953" style="stroke: #A80036; stroke-width: 1.0;"/><line style="stroke: #A80036; stroke-width: 1.0;" x1="793.5" x2="1061.5" y1="1802.1953" y2="1802.1953"/><text fill="#000000" font-family="sans-serif" font-size="13" lengthAdjust="spacingAndGlyphs" textLength="85" x="800.5" y="1797.2622">Send vBadge</text><line style="stroke: #A80036; stroke-width: 1.0;" x1="1067.5" x2="1109.5" y1="1831.4609" y2="1831.4609"/><line style="stroke: #A80036; stroke-width: 1.0;" x1="1109.5" x2="1109.5" y1="1831.4609" y2="1844.4609"/><line style="stroke: #A80036; stroke-width: 1.0;" x1="1068.5" x2="1109.5" y1="1844.4609" y2="1844.4609"/><polygon fill="#A80036" points="1078.5,1840.4609,1068.5,1844.4609,1078.5,1848.4609,1074.5,1844.4609" style="stroke: #A80036; stroke-width: 1.0;"/><text fill="#000000" font-family="sans-serif" font-size="13" lengthAdjust="spacingAndGlyphs" textLength="87" x="1074.5" y="1826.395">Store vBadge</text><rect fill="#EEEEEE" filter="url(#f1j2xdxjcgtynb)" height="3" style="stroke: #EEEEEE; stroke-width: 1.0;" width="1435" x="3" y="1875.3555"/><line style="stroke: #000000; stroke-width: 1.0;" x1="3" x2="1438" y1="1875.3555" y2="1875.3555"/><line style="stroke: #000000; stroke-width: 1.0;" x1="3" x2="1438" y1="1878.3555" y2="1878.3555"/><rect fill="#EEEEEE" filter="url(#f1j2xdxjcgtynb)" height="27.7891" style="stroke: #000000; stroke-width: 2.0;" width="410" x="515.5" y="1862.4609"/><text fill="#000000" font-family="sans-serif" font-size="17" font-weight="bold" lengthAdjust="spacingAndGlyphs" textLength="396" x="521.5" y="1882.2407">Story 8 - Home Owner Verifies Contractor</text><polygon fill="#A80036" points="781.5,1917.25,791.5,1921.25,781.5,1925.25,785.5,1921.25" style="stroke: #A80036; stroke-width: 1.0;"/><line style="stroke: #A80036; stroke-width: 1.0;" x1="559.5" x2="787.5" y1="1921.25" y2="1921.25"/><text fill="#000000" font-family="sans-serif" font-size="13" lengthAdjust="spacingAndGlyphs" textLength="162" x="566.5" y="1916.3169">Request Clearance Letter</text><polygon fill="#A80036" points="570.5,1946.3828,560.5,1950.3828,570.5,1954.3828,566.5,1950.3828" style="stroke: #A80036; stroke-width: 1.0;"/><line style="stroke: #A80036; stroke-width: 1.0;" x1="564.5" x2="792.5" y1="1950.3828" y2="1950.3828"/><text fill="#000000" font-family="sans-serif" font-size="13" lengthAdjust="spacingAndGlyphs" textLength="124" x="576.5" y="1945.4497">Provide copy of vCL</text><line style="stroke: #A80036; stroke-width: 1.0;" x1="559.5" x2="601.5" y1="1979.6484" y2="1979.6484"/><line style="stroke: #A80036; stroke-width: 1.0;" x1="601.5" x2="601.5" y1="1979.6484" y2="1992.6484"/><line style="stroke: #A80036; stroke-width: 1.0;" x1="560.5" x2="601.5" y1="1992.6484" y2="1992.6484"/><polygon fill="#A80036" points="570.5,1988.6484,560.5,1992.6484,570.5,1996.6484,566.5,1992.6484" style="stroke: #A80036; stroke-width: 1.0;"/><text fill="#000000" font-family="sans-serif" font-size="13" lengthAdjust="spacingAndGlyphs" textLength="62" x="566.5" y="1974.5825">Store vCL</text><polygon fill="#A80036" points="280.5,2017.6484,270.5,2021.6484,280.5,2025.6484,276.5,2021.6484" style="stroke: #A80036; stroke-width: 1.0;"/><line style="stroke: #A80036; stroke-width: 1.0;" x1="274.5" x2="558.5" y1="2021.6484" y2="2021.6484"/><text fill="#000000" font-family="sans-serif" font-size="13" lengthAdjust="spacingAndGlyphs" textLength="234" x="286.5" y="2016.7153">Subscribe for Revocation Notification</text><polygon fill="#A80036" points="547.5,2046.7813,557.5,2050.7813,547.5,2054.7813,551.5,2050.7813" style="stroke: #A80036; stroke-width: 1.0;"/><line style="stroke: #A80036; stroke-width: 1.0;" x1="269.5" x2="553.5" y1="2050.7813" y2="2050.7813"/><text fill="#000000" font-family="sans-serif" font-size="13" lengthAdjust="spacingAndGlyphs" textLength="77" x="276.5" y="2045.8481">Confirm sub</text><rect fill="none" height="117.5313" style="stroke: #000000; stroke-width: 2.0;" width="646" x="468.5" y="2065.9141"/><polygon fill="#EEEEEE" points="468.5,2065.9141,545.5,2065.9141,545.5,2072.9141,535.5,2082.9141,468.5,2082.9141,468.5,2065.9141" style="stroke: #000000; stroke-width: 2.0;"/><text fill="#000000" font-family="sans-serif" font-size="13" font-weight="bold" lengthAdjust="spacingAndGlyphs" textLength="32" x="483.5" y="2078.981">loop</text><text fill="#000000" font-family="sans-serif" font-size="11" font-weight="bold" lengthAdjust="spacingAndGlyphs" textLength="184" x="560.5" y="2078.1245">[for each Employee of Acme]</text><polygon fill="#A80036" points="1055.5,2100.0469,1065.5,2104.0469,1055.5,2108.0469,1059.5,2104.0469" style="stroke: #A80036; stroke-width: 1.0;"/><line style="stroke: #A80036; stroke-width: 1.0;" x1="559.5" x2="1061.5" y1="2104.0469" y2="2104.0469"/><text fill="#000000" font-family="sans-serif" font-size="13" lengthAdjust="spacingAndGlyphs" textLength="104" x="566.5" y="2099.1138">Request vBadge</text><polygon fill="#A80036" points="570.5,2129.1797,560.5,2133.1797,570.5,2137.1797,566.5,2133.1797" style="stroke: #A80036; stroke-width: 1.0;"/><line style="stroke: #A80036; stroke-width: 1.0;" x1="564.5" x2="1066.5" y1="2133.1797" y2="2133.1797"/><text fill="#000000" font-family="sans-serif" font-size="13" lengthAdjust="spacingAndGlyphs" textLength="99" x="576.5" y="2128.2466">Provide vBadge</text><line style="stroke: #A80036; stroke-width: 1.0;" x1="559.5" x2="601.5" y1="2162.4453" y2="2162.4453"/><line style="stroke: #A80036; stroke-width: 1.0;" x1="601.5" x2="601.5" y1="2162.4453" y2="2175.4453"/><line style="stroke: #A80036; stroke-width: 1.0;" x1="560.5" x2="601.5" y1="2175.4453" y2="2175.4453"/><polygon fill="#A80036" points="570.5,2171.4453,560.5,2175.4453,570.5,2179.4453,566.5,2175.4453" style="stroke: #A80036; stroke-width: 1.0;"/><text fill="#000000" font-family="sans-serif" font-size="13" lengthAdjust="spacingAndGlyphs" textLength="177" x="566.5" y="2157.3794">Verify vBadge is Acceptable</text><rect fill="#EEEEEE" filter="url(#f1j2xdxjcgtynb)" height="3" style="stroke: #EEEEEE; stroke-width: 1.0;" width="1435" x="3" y="2213.3398"/><line style="stroke: #000000; stroke-width: 1.0;" x1="3" x2="1438" y1="2213.3398" y2="2213.3398"/><line style="stroke: #000000; stroke-width: 1.0;" x1="3" x2="1438" y1="2216.3398" y2="2216.3398"/><rect fill="#EEEEEE" filter="url(#f1j2xdxjcgtynb)" height="27.7891" style="stroke: #000000; stroke-width: 2.0;" width="410" x="515.5" y="2200.4453"/><text fill="#000000" font-family="sans-serif" font-size="17" font-weight="bold" lengthAdjust="spacingAndGlyphs" textLength="396" x="521.5" y="2220.2251">Story 9 - Contractor Verifies Home Owner</text><rect fill="#EEEEEE" filter="url(#f1j2xdxjcgtynb)" height="3" style="stroke: #EEEEEE; stroke-width: 1.0;" width="1435" x="3" y="2261.1289"/><line style="stroke: #000000; stroke-width: 1.0;" x1="3" x2="1438" y1="2261.1289" y2="2261.1289"/><line style="stroke: #000000; stroke-width: 1.0;" x1="3" x2="1438" y1="2264.1289" y2="2264.1289"/><rect fill="#EEEEEE" filter="url(#f1j2xdxjcgtynb)" height="27.7891" style="stroke: #000000; stroke-width: 2.0;" width="491" x="475" y="2248.2344"/><text fill="#000000" font-family="sans-serif" font-size="17" font-weight="bold" lengthAdjust="spacingAndGlyphs" textLength="477" x="481" y="2268.0142">Story 10 - WSA Inspector Performs Site Inspection</text><rect fill="#EEEEEE" filter="url(#f1j2xdxjcgtynb)" height="3" style="stroke: #EEEEEE; stroke-width: 1.0;" width="1435" x="3" y="2308.918"/><line style="stroke: #000000; stroke-width: 1.0;" x1="3" x2="1438" y1="2308.918" y2="2308.918"/><line style="stroke: #000000; stroke-width: 1.0;" x1="3" x2="1438" y1="2311.918" y2="2311.918"/><rect fill="#EEEEEE" filter="url(#f1j2xdxjcgtynb)" height="27.7891" style="stroke: #000000; stroke-width: 2.0;" width="174" x="633.5" y="2296.0234"/><text fill="#000000" font-family="sans-serif" font-size="17" font-weight="bold" lengthAdjust="spacingAndGlyphs" textLength="160" x="639.5" y="2315.8032">WSA Revokes CL</text><polygon fill="#FBFB77" filter="url(#f1j2xdxjcgtynb)" points="219,2338.8125,219,2363.8125,844,2363.8125,844,2348.8125,834,2338.8125,219,2338.8125" style="stroke: #A80036; stroke-width: 1.0;"/><line style="stroke: #A80036; stroke-width: 1.0;" x1="834" x2="834" y1="2338.8125" y2="2348.8125"/><line style="stroke: #A80036; stroke-width: 1.0;" x1="844" x2="834" y1="2348.8125" y2="2348.8125"/><text fill="#000000" font-family="sans-serif" font-size="13" lengthAdjust="spacingAndGlyphs" textLength="209" x="420.5" y="2355.8794">Advise subscribers of Revocation</text><polygon fill="#A80036" points="547.5,2374.9453,557.5,2378.9453,547.5,2382.9453,551.5,2378.9453" style="stroke: #A80036; stroke-width: 1.0;"/><line style="stroke: #A80036; stroke-width: 1.0;" x1="269.5" x2="553.5" y1="2378.9453" y2="2378.9453"/><polygon fill="#A80036" points="781.5,2388.9453,791.5,2392.9453,781.5,2396.9453,785.5,2392.9453" style="stroke: #A80036; stroke-width: 1.0;"/><line style="stroke: #A80036; stroke-width: 1.0;" x1="269.5" x2="787.5" y1="2392.9453" y2="2392.9453"/><!--
@startuml
skinparam ParticipantPadding 20
skinparam BoxPadding 20

box "Government"
  participant "Corporate Registry" as Registry
  participant "WSA" as WSA
endbox
participant "Building Owner" as Owner


box "Acme Construction Inc."
  participant "Company" as Acme
  actor "Employee" as Employee
endbox

box "City"
  participant "Permits Dept" as City
  actor "Inspector" as Inspector
endbox




=== Story 1 - Acme Registers with Corporate Registry ==
Acme -> Registry: Request Corporate Registration
Registry -> Registry: internal
Registry -> Acme: Send Corporate Registration
Acme -> Acme: Store Corp Registration






=== Story 2 - Acme Obtains WSA Clearance Letter ==

Acme -> Acme: Assemble CL applications
Acme -> WSA: Send CL Application Request
WSA -> WSA: Confirm application detail and assemble CL
WSA -> Acme: Send Clearance Letter <vCL>
Acme -> Acme: Store Clearance Letter
Acme -> WSA: Subscribe to Revocation for CLID
WSA -> Acme: Confirm subscription




=== Story 3 - # Home Addition Project ==
note over Owner, City
  A Homeowner has decided to add an extension to her residential home.
  After completing her financial and architectural dependencies she
  obtains a Residential Building Permit from the City Building Department.
  She has also contracted with Acme Construction Company for the project.
  When the work commences she needs to verifies Acme employees that arrive
  onsite each day for Acme credentials which include proof of employment
  as well as Acme's WSA clearance letter.
end note

Owner -> Owner: Assemble building permit package
Owner -> City: Request Building Permit
City -> City: Analyze and Approve
City -> Owner: Send Building Permit <vPermit>
Owner -> Owner: Store vPermit



=== Story 4 - Acme Provides Clearance Letter For Authorized Employees ==
Acme -> Employee: Send copy of Clearance Letter <vCL>
Employee -> Employee: Store vCL



=== Story 6 - Commercial Building Permit Acquisition==
note over Owner, City
The entity owning a new shopping plaza has registered with the corporate registry.
The owner of a new shopping plaza has just received financial and architectural
approvals for proceeding with the project. He obtains a new Commercial
Building Permit from the City Building Department.

end note
Owner -> Owner: Assemble building permit package
Owner -> City: Request Building Permit
City -> City: Analyze and Approve
City -> Owner: Send Building Permit <vPermit>
Owner -> Owner: Store vPermit

=== Story 5 - City Inspector Performs Site Inspection ==
note over Owner, City
  City Inspector arrives at home owner's job site to perform inspection. First
  step is to validate that the required building permit is in place and that
  the contractors on site are covered by Workplace Safety Agency (WSA) insurance.

  City Inspector requests building permit from home owner, receiving a digital
  copy of the building permit. Inspector requests Contractor's WSA Clearance
  Letter from Home Owner for Acme and that each job site employee works for
  Acme. Permit, Clearance Letter, and Employee Badges are proved (as valid).
end note

Inspector -> Owner: Requests information package
Owner -> Inspector: provides copy of Clearance Letter
Owner -> Inspector: provides copy of Building Permit




=== Story 7 Acme Assigns An Employee to the Home Addition Project ==
Acme -> Acme: Assemble Employee Badge info package
Acme -> Employee: Send vBadge
Employee -> Employee: Store vBadge


=== Story 8 - Home Owner Verifies Contractor ==
Owner -> Acme: Request Clearance Letter
Acme -> Owner: Provide copy of vCL
Owner -> Owner: Store vCL
Owner -> WSA: Subscribe for Revocation Notification
WSA -> Owner: Confirm sub
loop for each Employee of Acme
  Owner-> Employee: Request vBadge
  Employee -> Owner: Provide vBadge
  Owner -> Owner: Verify vBadge is Acceptable
end

=== Story 9 - Contractor Verifies Home Owner ==


=== Story 10 - WSA Inspector Performs Site Inspection ==


=== WSA Revokes CL ==
note over WSA, Acme
  Advise subscribers of Revocation
end note

WSA -> Owner
WSA -> Acme
@enduml

PlantUML version 1.2018.00(Thu Jan 04 19:42:56 UTC 2018)
(GPL source distribution)
Java Runtime: Java(TM) SE Runtime Environment
JVM: Java HotSpot(TM) 64-Bit Server VM
Java Version: 1.7.0_25-b15
Operating System: Linux
Default Encoding: UTF-8
Language: en
Country: US
--></g></svg>